<svg width="160" height="137" viewBox="0 0 160 137" fill="none" xmlns="http://www.w3.org/2000/svg">
<g clip-path="url(#clip0)">
<path d="M16.8664 28.53C16.8664 28.53 14.6646 29.5498 14.1488 30.2801C13.6329 31.0105 13.2555 31.9016 13.0851 32.0302C12.9146 32.1588 12.4539 33.6655 12.4954 34.4969C12.5368 35.3283 12.067 37.0233 11.5189 38.3416C10.9708 39.66 10.8419 44.9792 11.565 45.9117C12.2881 46.8441 12.8455 47.5607 13.0896 47.5469C13.0896 47.5469 13.0896 48.0889 13.5501 47.919C14.0107 47.749 14.066 47.919 14.066 47.919L14.0937 48.3783C13.9713 48.3954 13.8543 48.4404 13.7521 48.5097C13.6499 48.579 13.565 48.6708 13.504 48.778C13.2139 49.1777 11.9198 52.1174 12.6245 54.8689C13.0026 56.1944 13.216 57.5613 13.26 58.9388V59.0214L12.3389 58.1027L11.4177 56.8762L10.036 61.162V63.2474H64.8447L8.00476 64.2626L64.6558 65.6406H64.49L14.2226 66.5593L63.7439 67.2161L63.2833 67.2483L21.1544 68.167L65.2547 69.0857L64.6789 67.7077L66.0973 67.2483L66.7929 67.0232H66.6272L69.7406 65.76L73.7754 65.8565L77.5751 64.2488V63.2336L81.6834 62.2184H84.3686L87.7078 61.0333L91.3924 59.5405C91.9649 59.2214 92.4941 58.8308 92.9676 58.3783L101 57.3494L109.29 56.325L107.568 55.4845L99.3419 46.7982L108.899 36.2103H109.511L112.583 41.185L108.59 46.0082H112.583L110.589 54.7357L107.517 55.5028H110.626L111.202 57.0325L109.511 58.1027L106.366 58.9066L101.682 59.5589L98.1905 60.0963L93.6998 61.1666L92.9307 62.2368L91.3556 63.2336L90.6692 64.2672H89.9738L89.5132 65.8749L86.9801 67.2529H87.7445H87.6709L88.5921 69.0903L134.995 68.1716L94.925 67.161L145.819 66.5639L95.6159 65.9483L149.361 63.9272L94.0084 64.2672L149.853 63.252L100.696 62.3747L149.278 62.2368V61.0104L148.509 59.5543C147.739 58.0981 148.509 58.5575 147.896 57.0279C147.679 56.4858 147.343 56.9452 147.288 57.9787C147.217 57.6912 147.118 57.4112 146.993 57.1427C147.804 57.5148 146.602 56.224 147.32 56.5501C147.32 56.5272 147.196 56.1321 147.214 56.0908C146.62 55.6314 147.214 56.0908 146.754 55.5166C146.367 55.0572 145.957 54.3361 146.026 53.794C146.239 52.105 146.598 50.4375 147.099 48.8102C147.325 48.0936 148.076 47.5423 148.559 46.8993C148.781 46.6493 148.939 46.35 149.02 46.0265C149.328 43.7298 149.48 41.433 149.904 39.2006C150.24 37.4275 150.59 35.5948 151.949 34.1938C154.284 31.7914 154.542 29.4625 152.967 26.5411C152.637 25.9617 152.442 25.3154 152.397 24.6504C152.353 23.9854 152.459 23.3191 152.709 22.7009C153.584 20.5604 152.189 18.4382 149.83 18.5346C149.113 18.6361 148.416 18.8468 147.762 19.1593C146.841 19.5084 145.948 19.9724 144.999 20.2664C143.866 20.6201 143.7 21.0243 144.478 21.9108C144.571 22.0163 144.671 22.1146 144.778 22.2048C145.934 23.174 145.929 23.1648 144.746 24.1065C144.183 24.5254 143.654 24.9861 143.161 25.4845C141.319 27.4551 139.546 29.4579 137.791 31.3917C133.369 28.4014 129.127 26.3389 124.126 26.4124C125.604 26.6605 127.11 26.8075 128.552 27.1888C129.788 27.5112 130.98 27.9816 132.103 28.5897C133.567 29.389 134.898 30.4271 136.335 31.2723C136.93 31.626 137.026 31.9843 136.755 32.5447C136.755 32.5768 136.713 32.6044 136.704 32.6366C135.783 35.0757 135.783 35.0757 138.219 36.3848L139.14 35.117L141.443 35.9669C141.401 37.9316 140.615 39.8076 139.242 41.2171C138.878 41.6122 138.496 41.9475 138.984 42.5539C139.113 42.7146 138.984 43.2015 138.823 43.4726C138.215 44.5704 137.851 45.5809 138.459 46.9039C138.772 47.5929 138.422 48.6127 138.284 49.467C138.182 50.1055 138.058 50.7348 137.929 51.3687L137.321 50.744L136.708 51.2814C136.096 51.8189 136.708 53.0407 136.708 53.9594C136.708 54.8781 135.939 53.9594 135.479 53.8078C135.018 53.6563 134.71 52.5446 134.71 52.5446V50.5924L133.494 51.2814C133.494 51.2814 133.328 52.2782 133.494 52.5446C133.659 52.8111 132.264 52.5446 132.264 52.5446L131.651 51.8556C131.949 51.0513 132.154 50.2161 132.264 49.3659C132.264 48.5988 131.495 48.755 131.034 47.6802C130.574 46.6053 129.192 48.9066 129.192 48.9066C129.192 48.9066 129.653 50.4363 129.192 50.4363C128.731 50.4363 127.81 49.2098 127.81 49.2098L127.198 46.6053L125.968 45.9944V47.6802L125.047 46.7615V45.6912L123.817 44.5061V46.4583L122.127 44.5061C122.127 44.5061 116.448 41.5571 115.987 41.1758C115.527 40.7946 108.927 34.2075 108.927 34.2075L104.012 40.7716L102.847 39.6692C102.897 39.2098 102.962 38.7505 103.059 38.2911L103.197 37.9328V37.4965L103.335 37.0371L103.413 36.7936L103.727 35.4156C103.882 34.7482 104.198 34.1287 104.648 33.6104C105.009 33.2147 105.335 32.7873 105.62 32.3334C105.898 31.8964 106.075 31.4025 106.138 30.8881C106.2 30.3738 106.146 29.8521 105.979 29.3615C105.924 29.2099 105.868 29.0629 105.804 28.9021L106.112 28.8699C106.112 28.7872 106.112 28.7229 106.112 28.6586C106.025 27.965 105.919 27.2806 105.845 26.5732C105.83 25.9 105.722 25.2322 105.523 24.5888C105.523 24.5888 105.523 24.5567 105.523 24.5291L105.749 24.6026C105.737 24.4916 105.72 24.3812 105.698 24.2719C105.601 23.9044 105.523 23.5277 105.389 23.174C105.223 22.5557 104.907 21.9877 104.468 21.5204C104.338 21.386 104.265 21.2065 104.265 21.0197C104.265 20.8329 104.338 20.6535 104.468 20.519C104.713 20.2709 104.933 20.0002 105.127 19.7106C105.499 19.1119 105.628 18.3936 105.486 17.7032L103.616 18.8516C103.969 18.4341 104.351 18.0412 104.758 17.6757C105.51 17.0581 106.122 16.2884 106.553 15.4173C106.984 14.5462 107.225 13.5937 107.259 12.6229C107.304 11.626 107.107 10.6332 106.683 9.729C106.725 10.1516 106.808 10.5742 106.831 10.9968C106.854 11.4194 106.831 11.8466 106.831 12.2737H106.743C106.575 11.7243 106.298 11.2139 105.93 10.7723C105.561 10.3306 105.108 9.96659 104.597 9.70142C104.869 10.0551 105.182 10.3721 105.449 10.7303C106.37 11.9568 106.799 13.2935 106.204 14.8415C106.01 15.4281 105.666 15.9538 105.205 16.3665C105.156 16.4191 105.095 16.4594 105.027 16.4841C104.959 16.5088 104.886 16.5173 104.814 16.5088C104.743 16.5003 104.674 16.4751 104.614 16.4352C104.554 16.3953 104.504 16.342 104.468 16.2793C104.288 15.9805 104.149 15.6591 104.054 15.3238C103.795 14.2661 103.405 13.2446 102.893 12.2829C102.667 11.9063 102.386 11.571 102.133 11.2219L102.059 11.277C102.082 11.3321 102.101 11.3918 102.128 11.447C102.418 12.0074 102.727 12.5585 102.99 13.1327C103.315 13.8137 103.512 14.5487 103.57 15.3009C103.598 15.7235 103.413 15.898 103.04 15.7923C102.692 15.6861 102.352 15.5557 102.022 15.4019C101.709 15.2595 101.414 15.0804 101.041 14.8783C101.101 14.9885 101.12 15.0299 101.143 15.062C101.607 15.6877 102.272 16.1366 103.027 16.3344C103.349 16.4401 103.708 16.4538 103.948 16.7524C104.011 16.8104 104.049 16.8902 104.055 16.9756C104.061 17.0611 104.034 17.1455 103.98 17.2117C103.662 17.5608 103.321 17.887 102.985 18.2085C102.838 18.3509 102.727 18.3004 102.658 18.0983C102.589 17.8962 102.483 17.6389 102.4 17.4506C102.4 17.8043 102.4 18.158 102.4 18.5117C102.4 18.7597 102.29 18.9435 102.036 18.971C101.731 19.0154 101.424 19.043 101.115 19.0537C100.728 19.0537 100.59 18.8011 100.655 18.3785C100.676 18.1385 100.676 17.8972 100.655 17.6573H100.59L100.249 18.3969L100.143 18.3647C100.143 17.9788 100.143 17.5884 100.18 17.2025C100.231 16.5135 100.328 15.8245 100.351 15.1309C100.343 15.0088 100.364 14.8866 100.411 14.7736C100.458 14.6606 100.53 14.5598 100.622 14.4786C100.958 14.1873 101.223 13.825 101.4 13.4181C101.577 13.0112 101.661 12.57 101.645 12.1268C101.579 12.2644 101.52 12.4054 101.47 12.5493C101.249 13.2115 100.852 13.8019 100.323 14.2581C100.157 14.396 100.014 14.4419 99.8623 14.226C99.5675 13.7666 99.2315 13.344 98.9827 12.8479C98.734 12.3518 98.5542 11.8098 98.347 11.2907C98.344 11.309 98.344 11.3276 98.347 11.3459C98.3746 11.5204 98.3976 11.6996 98.4252 11.8741C98.5541 12.9643 99.0009 13.9929 99.7103 14.8323C99.766 14.9011 99.7955 14.9873 99.7933 15.0757C99.7926 15.6913 99.7417 16.3058 99.6412 16.9131C99.4892 17.57 99.5399 17.6343 98.8537 17.5654C98.3098 17.4979 97.8139 17.2209 97.4719 16.7937C96.9616 16.2029 96.6043 15.4963 96.4311 14.7358C96.2377 13.9825 96.0994 13.2108 95.9382 12.4391C95.9093 12.7444 95.9 13.0513 95.9105 13.3578C95.8632 14.6326 96.1457 15.898 96.7305 17.0326C96.632 17.1126 96.5139 17.165 96.3884 17.1844C96.2629 17.2038 96.1345 17.1894 96.0164 17.1428C95.6449 17.0089 95.3289 16.7551 95.1184 16.4217C94.9066 16.1185 94.7132 15.8015 94.4737 15.4294C94.4815 15.5254 94.4967 15.6207 94.5196 15.7142C94.7002 16.2372 95.0035 16.7097 95.4041 17.0924C95.8046 17.4751 96.2908 17.7569 96.8224 17.9145C97.3797 18.0937 97.9695 18.158 98.5314 18.3234C98.99 18.4488 99.4332 18.6244 99.8531 18.847C100.245 19.0629 100.24 19.3063 99.9406 19.6371C99.6412 19.3798 99.3512 19.1042 99.0426 18.8653C98.719 18.6245 98.327 18.4926 97.9233 18.4887C98.0659 19.3717 98.5319 20.1705 99.2312 20.7303C99.153 20.9692 99.0931 21.1897 99.0102 21.4055C98.922 21.6138 98.7888 21.8 98.62 21.9509C98.4512 22.1018 98.2511 22.2136 98.0339 22.2783C97.5457 22.4758 97.5042 22.9398 97.8911 23.321C98.0754 23.5002 98.3517 23.592 98.43 23.8814C98.43 23.9457 98.5866 23.9963 98.6695 23.9963C98.9872 23.9885 99.3041 23.961 99.6183 23.9136C100.613 23.7437 101.401 24.327 102.022 25.2411C102.022 25.2411 102.022 25.2732 102.022 25.2962C101.719 24.9324 101.337 24.6432 100.903 24.451C100.659 25.1308 100.309 25.6912 99.6552 25.8888C99.3025 25.9727 98.9393 26.0052 98.5773 25.9852C95.8414 25.9852 93.101 25.8612 90.3836 26.3252C89.4183 26.442 88.4873 26.7547 87.6478 27.2439C87.0279 27.6032 86.5575 28.1718 86.3214 28.847C86.0464 29.6679 86.0859 30.5613 86.432 31.355L87.0259 29.6876C87.0259 29.8254 87.0259 29.8989 87.0259 29.9724C87.0259 31.185 87.0259 32.3977 87.0259 33.6104C87.0259 33.6104 87.0259 33.6425 87.0259 33.6563L82.4663 28.801L78.3211 30.0275L70.1827 20.0734L57.1345 34.6209H56.2134L51.147 35.999C51.147 35.999 47.1538 40.744 46.6933 40.744C46.2327 40.744 46.6933 39.9769 46.6933 39.9769L45.1595 38.5989L44.0863 41.0472V43.1924L42.8566 44.5704C42.8566 44.5704 41.7834 41.6627 41.7834 40.744C41.7834 39.8253 39.9411 40.744 39.9411 40.744L39.02 43.1924V47.3265C39.02 48.3967 37.2469 48.5529 37.2469 48.5529L37.1777 46.8671C37.1777 46.8671 37.3297 44.722 37.1777 44.2626C37.0257 43.8033 35.7959 44.2626 35.7959 44.2626L33.8018 45.4891V49.1639L32.8807 50.8496V49.6232C32.4278 49.0036 31.8524 48.483 31.1902 48.0935C30.269 47.6342 30.1172 49.32 30.1172 49.32C30.1172 49.32 29.5046 52.2277 29.5046 52.687C29.5046 53.1464 28.1229 51.0012 28.1229 51.0012V47.6342L27.0497 46.1046L26.4877 46.4078C26.4877 44.7036 26.3588 37.6802 25.8108 37.4643C25.8108 37.4643 26.0548 36.7202 25.8706 36.518C26.0554 36.3698 26.1823 36.1618 26.2297 35.9301C26.306 35.6471 26.4223 35.3765 26.5752 35.1262C26.6489 34.9976 27.4687 34.1662 26.1607 33.2475C26.1607 33.2475 26.3773 31.8419 26.9806 32.0716C27.584 32.3012 34.9625 35.1538 34.9625 35.1538C34.9625 35.1538 35.423 35.3972 35.7132 34.7955C36.0033 34.1938 37.7352 30.5236 37.7352 30.5236C37.7352 30.5236 37.8226 30.0642 37.3942 30.0642C36.9659 30.0642 28.4912 29.5314 28.4912 29.5314C28.4912 29.5314 28.5189 29.2145 28.4038 29.1869C28.4139 29.0836 28.3921 28.9797 28.341 28.8893C28.2899 28.7989 28.212 28.7264 28.1181 28.6816C27.976 28.6142 27.8507 28.5162 27.7511 28.3947C27.6516 28.2732 27.5803 28.1311 27.5424 27.9788C27.5424 27.9788 27.0543 27.864 26.953 27.6343C26.8517 27.4046 26.216 27.965 26.216 27.965C26.216 27.965 25.0094 28.1671 24.908 28.3233C24.908 28.3233 24.3185 27.965 24.0559 28.5208C23.8893 28.4998 23.7207 28.4998 23.554 28.5208L23.5861 28.2498C23.9042 28.2371 24.2168 28.1638 24.5073 28.0339C24.6777 27.8778 25.327 27.8915 25.327 27.8915C25.4444 27.8706 25.5531 27.816 25.6398 27.7345C25.7266 27.6529 25.7875 27.5478 25.8153 27.4322C25.8649 27.2565 25.8767 27.0723 25.8497 26.8918C25.8227 26.7113 25.7576 26.5385 25.6587 26.3849C25.4837 26.1139 25.7554 25.6821 25.7554 25.6821C25.7554 25.6821 25.7554 25.0069 25.6403 24.892C25.6403 24.892 26.3449 24.4924 25.9994 24.1341C25.654 23.7758 25.4699 23.5277 25.4838 23.4634C25.4976 23.3991 27.3814 23.638 27.69 22.4759C27.9985 21.3137 27.4825 20.4364 26.6028 20.6385C26.1079 20.7623 25.5969 20.8102 25.0875 20.7808C25.0875 20.7808 24.0651 17.864 19.9613 19.5222C15.8576 21.1805 17.9993 26.1966 18.3954 26.61L12.3434 23.4543C12.0548 23.4189 11.7623 23.4407 11.4823 23.5185L3.30701 19.3844C3.30701 19.3844 2.78651 18.9251 2.68518 19.8162C2.68518 19.8162 2.30753 19.8162 2.35819 20.5879L16.8664 28.53ZM139.357 32.9306L142.687 29.8345L142.917 30.0551L142.314 33.7987L139.357 32.9306ZM131.767 55.342V56.0494H136.985V57.7904L134.069 58.8606H130.233L128.699 59.5497L127.93 60.3902L127.009 58.8606L131.767 55.342ZM119.331 46.7661L121.095 45.999C120.713 46.4583 121.095 49.6737 121.095 49.6737H122.398V51.8556L115.798 55.3374L112.574 56.0449V54.111L119.331 46.7661ZM101.645 35.4799C101.645 36.4721 101.677 37.3908 101.691 38.236C101.622 38.5064 101.587 38.784 101.585 39.0628L101.622 39.4946L101.327 39.8299C101.3 39.7674 101.253 39.7156 101.193 39.6829C101.138 39.6508 101.143 39.4625 101.143 39.343C101.14 39.314 101.14 39.2847 101.143 39.2557V39.196C101.143 39.1593 101.143 39.1225 101.17 39.0858C101.176 38.997 101.176 38.9081 101.17 38.8194C101.18 38.7554 101.18 38.6904 101.17 38.6264C101.17 38.5529 101.17 38.507 101.17 38.4979C101.101 37.5792 101.032 36.6605 100.963 35.7418L101.645 35.4799ZM102.078 40.3031L103.151 41.185L99.3511 45.8565L97.928 44.5153L102.078 40.3031ZM93.5294 36.6926C93.9899 36.2333 94.4183 35.6821 94.8697 35.1584C95.9395 35.8091 97.2039 36.0659 98.4437 35.8841L98.0108 34.8782L98.1167 34.8185C98.5773 35.6499 99.038 36.4675 99.4525 37.3173C99.8112 38.1434 100.066 39.0105 100.212 39.8988C100.277 40.2158 100.35 40.5327 100.42 40.8451L97.3338 44.3637H97.039L91.535 38.507C92.2121 37.9144 92.8937 37.3173 93.5109 36.6926H93.5294ZM89.7066 36.2333C90.4547 35.9089 91.0621 35.329 91.4199 34.598C91.4381 34.5677 91.4582 34.5386 91.4799 34.5107L91.535 34.428C91.2801 35.3771 90.7981 36.2504 90.1303 36.9728L89.5225 36.3251L89.7066 36.2333ZM82.1532 30.2618L102.059 51.2768L90.6924 44.157L79.7489 31.2218L82.1532 30.2618ZM66.0697 31.9843L71.4448 23.5645L77.202 30.6063L97.2371 53.8814H83.0375L80.1958 57.0187L74.7471 56.5593L69.4505 52.3471L66.0744 38.1074L71.8316 38.948L66.0697 31.9843ZM50.834 43.5828L52.6763 43.468L52.5611 37.1519C52.9066 37.2668 64.6513 51.851 64.6513 51.851L56.8215 51.2768L50.834 46.7982V43.5828ZM33.332 53.1142L35.7501 52.54L42.1981 58.2819V59.5451L39.2044 58.856L34.3683 58.3967L33.332 55.1813V53.1142Z" fill="#3A3A3C"/>
<path d="M109.502 31.4837C109.513 31.9173 109.612 32.3444 109.792 32.7391C109.972 33.1338 110.231 33.488 110.552 33.7804C110.684 33.9042 110.824 34.0193 110.972 34.1249C111.167 34.2329 111.321 34.4025 111.409 34.6072C111.42 34.6334 111.434 34.6581 111.451 34.6807C111.708 35.0757 111.722 35.0711 112.164 34.9839C112.307 34.9571 112.455 34.9665 112.593 35.0114C113.096 35.1788 113.565 35.4373 113.975 35.7739C114.353 36.0795 114.806 36.2807 115.287 36.3573C115.476 36.3895 115.536 36.3343 115.471 36.1506C115.421 35.9911 115.355 35.8372 115.273 35.6912C115.099 35.3499 115.033 34.9638 115.085 34.5842C115.098 34.2089 115.088 33.8331 115.057 33.4588C115.057 33.2843 114.919 33.2843 114.813 33.3762C114.577 33.5673 114.353 33.7712 114.14 33.9871C113.74 34.4143 113.468 34.4464 113.04 34.0193C112.786 33.7699 112.586 33.4712 112.453 33.1417C112.32 32.8122 112.256 32.4589 112.266 32.1038L113.04 32.0394C112.842 31.7684 112.662 31.5342 112.491 31.2907C112.437 31.2233 112.411 31.1379 112.418 31.0518C112.579 30.5495 112.834 30.082 113.169 29.6738C113.169 29.9586 113.357 29.9954 113.551 30.0459C113.707 30.0961 113.861 30.1544 114.011 30.2205C114.073 29.7759 114.011 29.323 113.832 28.9113C114.412 28.7597 114.656 28.3049 114.909 27.8364C115.084 27.5553 115.288 27.2936 115.518 27.0556C115.728 26.8352 115.862 26.5535 115.9 26.2517C115.9 26.1782 115.849 26.1001 115.821 26.0266C115.756 26.0613 115.697 26.1062 115.646 26.1598C115.568 26.3099 115.443 26.4308 115.291 26.5044C115.138 26.5781 114.966 26.6006 114.799 26.5686C114.919 26.3573 115.029 26.1598 115.144 25.9669C115.172 25.9164 115.236 25.8842 115.255 25.8383C115.273 25.7923 115.352 25.6086 115.319 25.5765C115.238 25.5026 115.13 25.4631 115.02 25.4662C113.963 25.5567 112.953 25.9419 112.105 26.5778C110.979 27.384 110.138 28.5237 109.7 29.8346C109.604 30.0582 109.495 30.276 109.373 30.4869C109.313 30.6155 109.272 30.7533 109.212 30.9049L109.484 30.9324C109.502 31.0978 109.498 31.2907 109.502 31.4837Z" fill="#3A3A3C"/>
<path d="M16.3044 115.718C22.2151 115.718 26.6965 114.494 29.7486 112.044C32.8007 109.594 34.3267 105.939 34.3267 101.079V75.3557H5.22288V82.7053H22.8123V101.571C22.8123 105.953 20.4528 108.144 15.7334 108.144C12.2545 108.144 9.15627 106.689 6.43887 103.78L-0.00921631 109.899C1.95228 111.843 4.33928 113.307 6.96399 114.175C9.96615 115.218 13.1253 115.74 16.3044 115.718Z" fill="#3A3A3C"/>
<path d="M60.4187 75.3787L38.1081 115.034H49.9772L54.4127 106.536H77.6534L82.0888 115.034H94.2435L71.8638 75.3787H60.4187ZM58.1158 99.5679L66.0515 84.3864L73.9873 99.5679H58.1158Z" fill="#3A3A3C"/>
<path d="M137.289 82.742V75.3787H99.4617V115.034H111.045V100.588H134.212V93.2243H111.045V82.742H137.289Z" fill="#3A3A3C"/>
<path d="M156.739 75.3787H145.156V115.034H156.739V75.3787Z" fill="#3A3A3C"/>
<path d="M102.059 51.2861L82.1394 30.271L79.749 31.231L90.6923 44.1662L102.059 51.2861Z" fill="white"/>
<path d="M69.4321 52.3564L74.7287 56.5686L80.1819 57.0279L83.0191 53.8906H97.2233L77.1882 30.6155L71.431 23.5737L66.056 31.9935L71.8132 38.9618L66.056 38.1166L69.4321 52.3564Z" fill="white"/>
<path d="M64.6374 51.8602C64.6374 51.8602 52.8927 37.276 52.5472 37.1611L52.6624 43.4771L50.8201 43.592V46.8074L56.8076 51.286L64.6374 51.8602Z" fill="white"/>
<path d="M39.1905 58.8653L42.1843 59.5543V58.2911L35.7362 52.5493L33.3182 53.1235V55.1906L34.3545 58.406L39.1905 58.8653Z" fill="white"/>
<path d="M128.695 59.5542L130.228 58.8652H134.069L136.985 57.7949V56.054H131.767V55.342L127.004 58.8652L127.925 60.3994L128.695 59.5542Z" fill="white"/>
<path d="M112.574 56.0542L115.798 55.3468L122.398 51.865V49.6831H121.095C121.095 49.6831 120.713 46.4676 121.095 46.0083L119.331 46.7754L112.574 54.1249V56.0542Z" fill="white"/>
<path d="M112.574 46.0034H108.581L112.574 41.1803L109.502 36.2056H108.89L99.3328 46.7935L107.508 55.4981L110.58 54.731L112.574 46.0034Z" fill="white"/>
<path d="M99.3328 45.8518L103.133 41.1803L102.059 40.2983L97.9142 44.5105L99.3328 45.8518Z" fill="white"/>
<path d="M54.4862 10.9187C54.3316 10.9182 54.1773 10.9028 54.0256 10.8728C54.1843 10.9368 54.3382 11.012 54.4862 11.0978C54.4862 11.13 54.2652 11.13 54.2652 11.13C54.4053 11.1575 54.5413 11.2023 54.6704 11.2632C54.6704 11.3045 54.5553 11.3413 54.5553 11.3413C54.6978 11.3577 54.8395 11.3822 54.9792 11.4148L54.8825 11.5113L55.3431 11.571C55.3431 11.571 55.2786 11.6858 55.3154 11.718C55.5007 11.7364 55.6874 11.7364 55.8727 11.718C55.8727 11.718 55.7392 11.8374 55.8129 11.8741C55.9272 11.8874 56.0429 11.878 56.1536 11.8466C56.1656 11.8785 56.1854 11.9069 56.2111 11.9293C56.2369 11.9518 56.2676 11.9675 56.3009 11.9752C56.4785 12.0095 56.659 12.028 56.8399 12.0303C57.0163 12.0416 57.1908 12.0724 57.3603 12.1222C57.586 12.1681 57.913 12.2508 58.0328 12.2829C58.2486 12.3173 58.4612 12.3695 58.6683 12.4391C58.7752 12.5222 58.8685 12.6214 58.9447 12.7331C58.9566 12.8523 58.944 12.9726 58.9078 13.0868C58.8671 13.2369 58.8423 13.3909 58.834 13.5461C58.834 13.6334 58.7558 14.1019 58.7558 14.1019C58.7558 14.1019 58.4472 14.4602 58.5532 14.6256C58.6591 14.791 58.8388 14.5705 58.8388 14.5705L59.4559 14.1111C59.4625 14.2067 59.4748 14.3018 59.4928 14.3959C59.4928 14.474 59.4329 14.6486 59.4329 14.7175C59.4329 14.7864 59.5066 15.0528 59.5665 15.0757C59.6264 15.0987 59.6954 15.1309 59.7046 15.0528C59.7496 14.779 59.7496 14.4997 59.7046 14.226C59.6263 14.0238 59.5526 13.9917 59.5526 13.9917C59.5526 13.9917 59.8475 13.7988 59.9396 13.7253C60.0346 13.6575 60.1328 13.5947 60.2342 13.5369C60.2485 13.5925 60.2563 13.6495 60.2574 13.7069C60.2574 13.7574 60.1836 13.7804 60.1836 13.8171C60.1836 13.8539 60.2297 13.8631 60.2297 13.8631C60.1767 13.9729 60.132 14.0865 60.0961 14.203C60.0961 14.2398 60.1699 14.2673 60.1699 14.2673L60.2803 14.2949C60.2803 14.2949 60.1928 14.4235 60.2342 14.4556C60.267 14.483 60.307 14.5005 60.3494 14.5062C60.3494 14.5062 60.3494 14.6164 60.4047 14.6119C60.4908 14.4022 60.5317 14.1768 60.5246 13.9504C60.5224 13.8045 60.4775 13.6624 60.3955 13.5415L60.2988 13.4175C60.5504 13.1381 60.7347 12.805 60.8376 12.4437C61.0359 11.844 61.3231 11.2774 61.6897 10.7625C61.7718 10.6846 61.8473 10.6001 61.9155 10.5099C62.2702 10.4412 62.6283 10.3922 62.9885 10.3629C63.1865 10.3629 63.6241 10.4318 63.6287 10.3629C63.6333 10.294 63.0715 10.0643 63.0715 10.0643C63.0321 9.92981 62.9494 9.81196 62.8362 9.72895C62.723 9.64593 62.5856 9.60237 62.4451 9.60497C61.9339 9.60497 61.6159 9.99082 61.3672 10.0643C61.0503 10.1458 60.7486 10.2776 60.4737 10.4547C60.4737 10.4547 60.9804 9.67387 60.9343 9.49013C60.8883 9.30639 60.4737 8.50709 60.4737 8.3601C60.4737 8.21311 60.133 8.22231 60.0455 8.25906C59.958 8.29581 59.7784 8.28204 59.7278 8.38309C59.6771 8.48415 59.6954 8.56682 59.6677 8.60357C59.6401 8.64032 59.4974 8.57141 59.4237 8.65869C59.35 8.74596 59.5573 8.87459 59.4698 8.95727C59.3823 9.03996 59.2578 9.06291 59.244 9.11803C59.2302 9.17316 59.4192 9.25128 59.3823 9.32477C59.3455 9.39827 59.1612 9.3661 59.1428 9.47634C59.1244 9.58658 59.2073 9.60494 59.2119 9.68762C59.2165 9.7703 59.0047 9.82541 59.0277 9.9081C59.0507 9.99078 59.1703 10.0459 59.1703 10.0459C59.1703 10.0459 58.9309 10.1378 58.9447 10.2297C58.9585 10.3215 59.152 10.3261 59.152 10.3261C59.152 10.3261 58.9033 10.441 58.9539 10.5283C59.0046 10.6155 59.1427 10.5971 59.1473 10.6247C59.1519 10.6523 58.9217 10.7763 58.9816 10.8636C59.0415 10.9508 59.0828 11.0197 59.0828 11.0197L56.674 10.8636L56.8215 10.9646C56.2922 10.9623 55.7634 10.9332 55.2371 10.8774C55.0068 10.8085 54.1131 10.418 54.1131 10.418L54.3342 10.565L53.9429 10.4593L54.4311 10.6844L53.906 10.5145C53.906 10.5145 54.4724 10.8911 54.4862 10.9187Z" fill="#3A3A3C"/>
<path d="M75.5669 14.7635C75.7373 14.7635 76.4881 14.8645 76.8427 14.9197C77.2261 15.015 77.5874 15.1835 77.9067 15.4158C78.0518 15.5291 78.2058 15.6304 78.3672 15.7189C78.2255 15.94 78.0718 16.1531 77.9067 16.3574C77.7915 16.4585 77.3217 16.9224 77.3908 17.0051C77.4599 17.0878 77.2756 17.3634 77.2664 17.4231C77.2572 17.4828 77.1973 17.6252 77.2664 17.7263C77.3355 17.8273 77.4783 17.6436 77.4783 17.6436C77.4783 17.6436 77.4461 17.8181 77.5244 17.8916C77.6027 17.9651 77.8099 17.6987 77.8606 17.7033C77.9112 17.7079 77.9344 17.8963 77.962 17.9284C77.9896 17.9606 78.3903 17.6482 78.464 17.6574C78.5376 17.6666 78.5054 17.7217 78.5422 17.7814C78.5791 17.8411 78.8049 17.6574 78.8049 17.6574C78.8323 17.6727 78.8632 17.6807 78.8946 17.6807C78.9261 17.6807 78.9569 17.6727 78.9844 17.6574C79.0903 17.6161 79.2193 17.3956 79.27 17.4185C79.444 17.3988 79.6063 17.3211 79.7305 17.1981C79.826 17.0476 79.9661 16.9303 80.1313 16.8627C80.1815 16.8502 80.2268 16.823 80.2613 16.7845C80.2958 16.746 80.3179 16.698 80.3247 16.6468C80.3247 16.5871 80.7437 16.4264 80.8174 16.3896C80.9443 16.3459 81.0822 16.3459 81.209 16.3896C81.5018 16.4314 81.7974 16.4514 82.0932 16.4493C82.2659 16.5513 82.4443 16.6433 82.6276 16.7249C82.6772 16.6833 82.7295 16.6449 82.7841 16.6101C82.8394 16.5733 82.8302 16.4355 82.821 16.4125C82.8073 16.349 82.8073 16.2832 82.821 16.2196C82.821 16.1875 82.821 16.0864 82.821 16.0634C82.7864 16.031 82.7477 16.0032 82.7059 15.9808C82.7059 15.9808 82.7058 15.8659 82.6782 15.8292C82.6506 15.7924 81.9367 15.6546 81.9367 15.6546L81.6005 15.3882C81.5084 15.3147 80.0807 14.5981 79.6109 14.4144C79.1527 14.3143 78.6761 14.3364 78.2292 14.4787C77.8731 14.5104 77.5144 14.5011 77.1605 14.4511C76.9102 14.311 76.6483 14.1927 76.3776 14.0975C76.2222 14.0874 76.0663 14.1109 75.9209 14.1664C75.7754 14.2219 75.6438 14.3081 75.5347 14.419C75.4472 14.5155 74.8253 14.6349 74.8392 14.7038C74.853 14.7727 75.3919 14.7681 75.5669 14.7635Z" fill="#3A3A3C"/>
<path d="M77.948 5.03439C78.0576 5.06776 78.1746 5.06776 78.2842 5.03439C78.9573 5.03347 79.6298 5.07799 80.297 5.16762C80.9392 5.337 81.57 5.54719 82.1854 5.79692C82.6091 5.92554 84.3822 5.70506 84.8382 5.63156C85.5483 5.562 86.262 5.5359 86.9753 5.55345C87.5053 5.46776 88.0127 5.27724 88.4677 4.99306C88.7118 4.85985 89.5178 4.9931 89.9185 5.02525C90.3192 5.0574 91.4475 5.08491 91.4475 5.08491C91.9009 5.19194 92.3637 5.25503 92.8293 5.27326C92.8293 5.19058 92.3686 5.0482 92.2167 5.00686C91.9554 4.84306 91.7324 4.62534 91.5627 4.36836C91.3417 4.05594 91.0183 3.83035 90.6483 3.73054C90.2782 3.63072 89.8849 3.66294 89.5362 3.82171C89.2037 4.02029 88.8272 4.13393 88.4401 4.15248C87.8246 4.08494 87.2284 3.89763 86.6852 3.60123C86.2884 3.39792 85.8755 3.22739 85.4508 3.09136C85.331 3.04084 85.1699 2.59985 84.9027 2.33343C84.7507 2.19604 84.6148 2.04195 84.4975 1.87409C84.3213 1.57971 84.1673 1.27263 84.0369 0.955394C84.0023 0.668313 83.9013 0.39315 83.7421 0.151538C83.6054 0.0523578 83.4452 -0.00953455 83.2772 -0.0280625C83.1092 -0.0465904 82.9391 -0.0211042 82.784 0.0458972C82.5906 0.133173 82.1991 0.96459 82.1991 0.96459C82.1342 0.916912 82.0742 0.863081 82.0196 0.80383C81.9552 0.725741 81.7893 1.00594 81.7156 1.0335C81.5932 1.16055 81.5101 1.32 81.4761 1.49285C81.4484 1.65821 81.6419 1.71794 81.7064 1.79603C81.7708 1.87412 81.7064 1.98896 81.734 2.08542C81.7617 2.18189 82.0564 2.24615 82.1301 2.32883C82.1995 2.63115 82.1995 2.94521 82.1301 3.24753C82.0702 3.50935 81.2643 3.51859 81.011 3.58749C80.7577 3.6564 79.8456 3.98253 79.8456 3.98253L79.081 3.90901C78.8921 3.90901 78.6204 3.90903 78.5421 4.04224C78.4638 4.17545 78.5837 4.15248 78.5837 4.15248L78.266 4.31784L78.427 4.42348L78.1 4.57045C78.1 4.57045 78.2013 4.61639 78.2059 4.69448C78.2105 4.77257 77.7454 4.82311 77.7454 4.82311C77.7454 4.82311 77.5151 4.86904 77.5888 4.98847C77.6625 5.1079 77.948 5.03439 77.948 5.03439Z" fill="#3A3A3C"/>
<path d="M92.8939 126.61C92.7496 126.601 92.6054 126.624 92.4704 126.675C92.3354 126.727 92.2127 126.806 92.1108 126.908C91.9133 127.134 91.8038 127.422 91.8022 127.721H93.8749C93.8864 127.425 93.7972 127.134 93.6216 126.894C93.5299 126.795 93.4167 126.718 93.2906 126.669C93.1645 126.619 93.0289 126.599 92.8939 126.61Z" fill="#3A3A3C"/>
<path d="M34.0919 128.81C33.9543 128.854 33.8326 128.937 33.7417 129.049C33.6534 129.171 33.6095 129.32 33.6173 129.471C33.6057 129.569 33.6185 129.669 33.6547 129.761C33.6908 129.853 33.7493 129.935 33.8247 129.999C34.0101 130.107 34.2234 130.156 34.4373 130.142C34.5962 130.14 34.753 130.106 34.8979 130.041C35.0571 129.971 35.2021 129.873 35.3261 129.751V128.608L34.6215 128.686C34.4408 128.707 34.2631 128.748 34.0919 128.81Z" fill="#3A3A3C"/>
<path d="M146.344 126.61C146.2 126.601 146.055 126.624 145.92 126.675C145.785 126.727 145.663 126.806 145.561 126.908C145.363 127.134 145.254 127.422 145.252 127.721H147.325C147.337 127.425 147.247 127.134 147.072 126.894C146.98 126.795 146.867 126.718 146.741 126.669C146.615 126.619 146.479 126.599 146.344 126.61Z" fill="#3A3A3C"/>
<path d="M2.62067 119.825V137.005H160V119.825H2.62067ZM13.8126 125.301H10.7498V126.679H13.5639V128.057H10.7498V131.203H8.9075V123.932H13.7897L13.8126 125.301ZM19.2982 130.578C18.7142 131.077 17.9711 131.35 17.2026 131.35C16.4342 131.35 15.6908 131.077 15.1069 130.578C14.6234 129.971 14.3602 129.218 14.3602 128.443C14.3602 127.667 14.6234 126.914 15.1069 126.307C15.6908 125.808 16.4342 125.535 17.2026 125.535C17.9711 125.535 18.7142 125.808 19.2982 126.307C19.7789 126.914 20.0405 127.666 20.0405 128.44C20.0405 129.214 19.7789 129.966 19.2982 130.574V130.578ZM24.7468 127.317H24.604C24.5111 127.289 24.4152 127.273 24.3184 127.267C24.1956 127.267 24.0591 127.267 23.9087 127.267C23.7172 127.268 23.5268 127.294 23.3422 127.345C23.147 127.395 22.9548 127.457 22.7664 127.528V131.203H21.0438V125.691H22.7572V126.477C22.834 126.406 22.943 126.316 23.0842 126.206C23.2036 126.109 23.3297 126.022 23.4618 125.944C23.5983 125.863 23.7435 125.798 23.8947 125.751C24.0432 125.701 24.1986 125.675 24.3553 125.673H24.5395H24.7239L24.7468 127.317ZM30.8679 131.281C30.883 131.548 30.8415 131.814 30.7463 132.064C30.651 132.313 30.5041 132.539 30.3151 132.728C29.9251 133.083 29.4103 133.27 28.8828 133.247C28.5982 133.249 28.3138 133.235 28.0307 133.206C27.8433 133.188 27.6572 133.159 27.4734 133.119V131.86H27.607C27.7274 131.899 27.8505 131.928 27.9754 131.947C28.0834 131.966 28.1927 131.977 28.3024 131.979C28.4315 131.995 28.5626 131.975 28.6811 131.921C28.7996 131.868 28.9012 131.783 28.975 131.676C29.1168 131.364 29.1784 131.022 29.1545 130.68V126.89H28.1643V125.691H30.8679V131.281ZM30.8679 124.915H29.0256V123.583H30.8679V124.915ZM37.0167 131.18H35.3217V130.597L35.0039 130.859C34.8891 130.951 34.7639 131.03 34.6308 131.093C34.4832 131.165 34.329 131.221 34.1702 131.263C33.9708 131.308 33.7667 131.328 33.5623 131.323C33.3377 131.329 33.1141 131.289 32.9057 131.205C32.6972 131.122 32.5082 130.996 32.3509 130.836C32.1951 130.672 32.0742 130.478 31.9951 130.267C31.9159 130.055 31.8802 129.83 31.8903 129.605C31.874 129.259 31.9589 128.916 32.1345 128.617C32.3088 128.356 32.5528 128.149 32.8391 128.02C33.1905 127.859 33.5651 127.753 33.9492 127.708C34.379 127.649 34.8396 127.603 35.3309 127.57V127.528C35.3433 127.402 35.3181 127.275 35.2583 127.163C35.1984 127.051 35.1067 126.959 34.9947 126.899C34.6763 126.765 34.3312 126.705 33.986 126.725C33.7458 126.73 33.5074 126.767 33.2767 126.835C33.0059 126.908 32.741 127.002 32.4844 127.115H32.3371V125.792C32.506 125.743 32.7808 125.685 33.1616 125.618C33.5402 125.55 33.9238 125.517 34.3083 125.516C35.0284 125.457 35.7497 125.617 36.3764 125.976C36.5955 126.143 36.7695 126.362 36.8829 126.613C36.9962 126.864 37.0454 127.139 37.0259 127.414L37.0167 131.18ZM41.8527 131.18L40.3651 128.792L40.1024 129.15V131.203H38.3892V123.601H40.1024V127.859L41.7284 125.714H43.7501L41.8251 128.08L43.893 131.199L41.8527 131.18ZM47.9968 126.885H46.3755V128.828C46.3755 129.021 46.3755 129.187 46.3755 129.334C46.3765 129.466 46.403 129.597 46.4538 129.72C46.5014 129.835 46.5877 129.931 46.698 129.991C46.8556 130.067 47.0297 130.101 47.2045 130.092C47.3262 130.086 47.447 130.066 47.5639 130.032C47.6703 130.008 47.7738 129.973 47.8724 129.926H48.0197V131.134C47.8243 131.185 47.6258 131.223 47.4255 131.249C47.1703 131.279 46.9134 131.293 46.6564 131.29C46.1125 131.337 45.5703 131.183 45.1319 130.859C44.9617 130.669 44.8329 130.446 44.7536 130.204C44.6743 129.962 44.6463 129.706 44.6713 129.453V126.89H44.0173V125.691H44.6713V124.125H46.3755V125.691H48.0244L47.9968 126.885ZM51.9254 128.649H48.6784V127.271H51.9254V128.649ZM60.7962 130.569C60.2123 131.067 59.4689 131.341 58.7005 131.341C57.932 131.341 57.1889 131.067 56.6049 130.569C56.1215 129.962 55.8583 129.209 55.8583 128.433C55.8583 127.658 56.1215 126.905 56.6049 126.297C57.1889 125.799 57.932 125.525 58.7005 125.525C59.4689 125.525 60.2123 125.799 60.7962 126.297C61.277 126.905 61.5384 127.657 61.5384 128.431C61.5384 129.205 61.277 129.957 60.7962 130.565V130.569ZM67.5484 130.569C67.5601 131.011 67.485 131.451 67.3273 131.865C67.2026 132.19 66.9945 132.476 66.7239 132.696C66.4539 132.914 66.1396 133.071 65.8028 133.155C65.4152 133.248 65.0175 133.293 64.6189 133.289C64.2708 133.291 63.923 133.268 63.5781 133.22C63.2899 133.18 63.004 133.124 62.7215 133.054V131.676H62.9242L63.2235 131.782L63.5734 131.888C63.7147 131.924 63.8514 131.953 63.9834 131.975C64.3623 132.036 64.7499 132.017 65.1211 131.92C65.2961 131.879 65.4558 131.79 65.5817 131.663C65.6818 131.546 65.7526 131.407 65.7888 131.258C65.8325 131.067 65.8526 130.871 65.8486 130.675V130.574C65.6508 130.747 65.4251 130.885 65.1809 130.983C64.9323 131.084 64.6663 131.135 64.3979 131.134C64.0881 131.152 63.7783 131.099 63.4925 130.979C63.2066 130.859 62.9522 130.674 62.749 130.441C62.3163 129.826 62.1113 129.081 62.1688 128.332C62.1631 127.939 62.2239 127.548 62.3484 127.175C62.4557 126.854 62.6245 126.558 62.8457 126.302C63.047 126.072 63.2973 125.89 63.5781 125.769C63.861 125.644 64.1669 125.58 64.4761 125.581C64.7319 125.576 64.9869 125.612 65.2315 125.686C65.4465 125.755 65.651 125.852 65.8394 125.976L65.904 125.732H67.5621L67.5484 130.569ZM75.5163 124.887H75.3919L75.0834 124.809C74.9534 124.779 74.8207 124.764 74.6873 124.763C74.4355 124.733 74.1817 124.801 73.978 124.952C73.8288 125.157 73.7614 125.411 73.7891 125.663V125.709H75.1708V126.899H73.8674V131.203H72.1679V126.908H71.4815V125.691H72.1679V125.539C72.1466 125.265 72.1829 124.989 72.274 124.729C72.3652 124.468 72.5093 124.23 72.6975 124.028C73.1459 123.659 73.7206 123.478 74.3003 123.523C74.549 123.523 74.7809 123.532 74.9959 123.55C75.1827 123.564 75.3687 123.587 75.5532 123.619L75.5163 124.887ZM77.6487 131.199H75.9355V125.691H77.6487V131.199ZM77.6993 124.933H75.8894V123.601H77.6993V124.933ZM83.2262 130.22C83.1037 130.454 82.927 130.656 82.7106 130.808C82.4594 130.988 82.1788 131.123 81.8814 131.208C81.5094 131.309 81.1248 131.357 80.7392 131.35C80.3529 131.352 79.968 131.307 79.5924 131.217C79.2842 131.147 78.9846 131.044 78.6989 130.909V129.462H78.8418L79.1226 129.669C79.2601 129.762 79.4066 129.84 79.5601 129.903C79.7336 129.983 79.9141 130.048 80.0991 130.096C80.3125 130.152 80.5324 130.18 80.7531 130.179C80.9716 130.184 81.1889 130.146 81.3931 130.069C81.4719 130.047 81.5414 130 81.5913 129.935C81.6411 129.871 81.6685 129.792 81.6695 129.71C81.6732 129.655 81.6634 129.6 81.641 129.55C81.6185 129.499 81.5841 129.455 81.5407 129.421C81.3891 129.33 81.2219 129.268 81.0477 129.237L80.555 129.132C80.3759 129.1 80.1991 129.057 80.0254 129.003C79.6503 128.904 79.3125 128.698 79.0536 128.41C78.8251 128.115 78.7092 127.749 78.7266 127.377C78.7265 127.137 78.7848 126.9 78.8968 126.688C79.0182 126.461 79.1881 126.263 79.3943 126.109C79.6389 125.931 79.9135 125.797 80.205 125.714C80.5596 125.612 80.9273 125.562 81.2964 125.567C81.6544 125.564 82.0114 125.602 82.3604 125.682C82.6428 125.744 82.9178 125.836 83.1804 125.957V127.335H83.042C82.9517 127.269 82.8579 127.208 82.7612 127.152C82.6407 127.079 82.5161 127.013 82.3881 126.954C82.2398 126.887 82.0856 126.833 81.9275 126.793C81.748 126.751 81.564 126.729 81.3794 126.729C81.162 126.723 80.9459 126.767 80.7484 126.858C80.677 126.882 80.6146 126.927 80.5687 126.987C80.5228 127.046 80.4955 127.118 80.4904 127.193C80.4879 127.249 80.4982 127.304 80.5206 127.355C80.5429 127.406 80.5769 127.451 80.6195 127.487C80.7879 127.593 80.9756 127.665 81.1721 127.698C81.3195 127.735 81.4884 127.77 81.6787 127.804C81.8661 127.836 82.0509 127.883 82.2315 127.942C82.5869 128.035 82.9072 128.23 83.1527 128.502C83.3669 128.782 83.4745 129.129 83.4565 129.481C83.446 129.736 83.3733 129.985 83.2447 130.206L83.2262 130.22ZM87.8275 131.203L86.3399 128.815L86.0774 129.173V131.203H84.364V123.601H86.0774V127.859L87.7031 125.714H89.7251L87.7998 128.08L89.868 131.199L87.8275 131.203ZM95.5791 128.787H91.8207C91.8284 129.009 91.8834 129.227 91.9819 129.426C92.0672 129.59 92.1923 129.73 92.3458 129.834C92.5022 129.939 92.6774 130.012 92.8617 130.05C93.0721 130.095 93.2866 130.117 93.5017 130.115C93.7001 130.115 93.898 130.094 94.0914 130.05C94.2733 130.01 94.4507 129.951 94.621 129.876C94.7556 129.816 94.8864 129.749 95.0126 129.674C95.1323 129.603 95.229 129.539 95.3027 129.481H95.4824V130.891L95.1 131.042C94.95 131.1 94.7961 131.148 94.6395 131.185C94.45 131.234 94.2577 131.273 94.0637 131.3C93.8239 131.33 93.5824 131.344 93.3407 131.341C92.4802 131.398 91.6293 131.133 90.9548 130.597C90.671 130.326 90.4499 129.997 90.3067 129.632C90.1635 129.267 90.1018 128.875 90.1259 128.484C90.1065 128.093 90.1647 127.702 90.2975 127.334C90.4303 126.966 90.6349 126.628 90.8995 126.339C91.185 126.063 91.5249 125.85 91.8976 125.712C92.2703 125.574 92.6677 125.516 93.0643 125.539C93.4115 125.513 93.7603 125.56 94.088 125.677C94.4158 125.794 94.7151 125.979 94.9665 126.219C95.4202 126.762 95.6477 127.457 95.602 128.162L95.5791 128.787ZM101.636 128.787H97.8772C97.885 129.009 97.94 129.227 98.0385 129.426C98.1237 129.59 98.2488 129.73 98.4024 129.834C98.5587 129.939 98.734 130.012 98.9183 130.05C99.1286 130.095 99.3434 130.117 99.5585 130.115C99.7568 130.115 99.9545 130.094 100.148 130.05C100.33 130.01 100.507 129.951 100.678 129.876C100.812 129.816 100.943 129.749 101.069 129.674C101.189 129.603 101.286 129.539 101.359 129.481H101.539V130.891L101.157 131.042C101.007 131.1 100.853 131.148 100.696 131.185C100.507 131.234 100.314 131.273 100.12 131.3C99.8805 131.33 99.639 131.344 99.3973 131.341C98.5368 131.398 97.6858 131.133 97.0114 130.597C96.7276 130.326 96.5064 129.997 96.3633 129.632C96.2201 129.267 96.1584 128.875 96.1824 128.484C96.163 128.093 96.2212 127.702 96.354 127.334C96.4868 126.966 96.6915 126.628 96.9561 126.339C97.2416 126.063 97.5815 125.85 97.9541 125.712C98.3268 125.574 98.7242 125.516 99.1209 125.539C99.468 125.513 99.8168 125.56 100.145 125.677C100.472 125.794 100.772 125.979 101.023 126.219C101.477 126.762 101.704 127.457 101.659 128.162L101.636 128.787ZM107.77 131.203H106.048V128.447C106.048 128.227 106.039 128.006 106.02 127.786C106.014 127.619 105.98 127.454 105.919 127.299C105.868 127.183 105.779 127.089 105.666 127.032C105.521 126.97 105.363 126.942 105.205 126.95C105.059 126.95 104.914 126.977 104.777 127.028C104.613 127.09 104.458 127.173 104.316 127.276V131.203H102.603V125.691H104.316V126.297C104.567 126.081 104.842 125.894 105.136 125.742C105.411 125.605 105.714 125.536 106.02 125.539C106.261 125.524 106.503 125.563 106.726 125.655C106.95 125.746 107.15 125.887 107.31 126.068C107.64 126.509 107.803 127.052 107.77 127.602V131.203ZM112.606 126.908H110.958V128.851C110.958 129.044 110.958 129.21 110.958 129.357C110.959 129.489 110.985 129.62 111.036 129.742C111.084 129.858 111.17 129.954 111.28 130.014C111.438 130.09 111.612 130.124 111.787 130.115C111.909 130.109 112.029 130.089 112.146 130.055C112.252 130.031 112.356 129.996 112.455 129.949H112.602V131.157C112.407 131.208 112.208 131.246 112.008 131.272C111.753 131.302 111.496 131.316 111.239 131.313C110.695 131.36 110.153 131.206 109.714 130.882C109.544 130.692 109.415 130.469 109.336 130.227C109.257 129.985 109.229 129.729 109.254 129.476V126.913H108.553V125.691H109.207V124.125H110.921V125.691H112.57L112.606 126.908ZM118.516 131.203H116.803V130.597C116.55 130.814 116.275 131.003 115.983 131.162C115.708 131.296 115.404 131.363 115.098 131.355C114.861 131.368 114.623 131.329 114.403 131.24C114.182 131.151 113.984 131.014 113.822 130.84C113.485 130.396 113.321 129.844 113.362 129.288V125.691H115.085V128.41C115.085 128.692 115.085 128.923 115.085 129.104C115.094 129.262 115.13 129.417 115.19 129.563C115.241 129.674 115.327 129.765 115.434 129.821C115.579 129.886 115.737 129.916 115.895 129.908C116.042 129.903 116.187 129.873 116.323 129.821C116.488 129.763 116.643 129.683 116.784 129.582V125.691H118.497L118.516 131.203ZM124.093 130.225C123.971 130.459 123.794 130.661 123.578 130.813C123.326 130.993 123.046 131.128 122.748 131.212C122.376 131.314 121.992 131.362 121.606 131.355C121.22 131.356 120.835 131.312 120.459 131.222C120.151 131.152 119.852 131.049 119.566 130.914V129.467H119.709L119.99 129.674C120.127 129.766 120.274 129.845 120.427 129.908C120.601 129.988 120.781 130.053 120.966 130.101C121.18 130.157 121.399 130.185 121.62 130.183C121.839 130.188 122.056 130.151 122.26 130.073C122.339 130.051 122.408 130.005 122.458 129.94C122.508 129.875 122.536 129.796 122.537 129.715C122.54 129.66 122.53 129.605 122.508 129.554C122.486 129.504 122.451 129.46 122.408 129.426C122.256 129.335 122.089 129.272 121.915 129.242L121.422 129.136C121.243 129.104 121.066 129.061 120.892 129.008C120.517 128.909 120.18 128.703 119.921 128.415C119.692 128.12 119.576 127.754 119.594 127.381C119.594 127.141 119.652 126.905 119.764 126.692C119.885 126.466 120.055 126.268 120.261 126.114C120.506 125.935 120.781 125.801 121.072 125.719C121.427 125.616 121.794 125.567 122.163 125.572C122.521 125.569 122.878 125.607 123.227 125.686C123.51 125.749 123.785 125.841 124.047 125.962V127.34H123.909C123.819 127.274 123.725 127.213 123.628 127.156C123.508 127.083 123.383 127.018 123.255 126.959C123.107 126.891 122.953 126.837 122.795 126.798C122.615 126.755 122.431 126.734 122.246 126.734C122.029 126.728 121.813 126.772 121.615 126.862C121.544 126.887 121.482 126.931 121.436 126.991C121.39 127.051 121.363 127.123 121.357 127.198C121.355 127.253 121.365 127.309 121.388 127.36C121.41 127.411 121.444 127.456 121.487 127.492C121.655 127.598 121.843 127.67 122.039 127.703C122.186 127.74 122.355 127.775 122.546 127.809C122.733 127.841 122.918 127.887 123.099 127.946C123.454 128.039 123.774 128.234 124.02 128.507C124.234 128.787 124.342 129.134 124.324 129.485C124.303 129.742 124.219 129.99 124.08 130.206L124.093 130.225ZM126.908 131.203H125.194V125.691H126.908V131.203ZM126.958 124.938H125.134V123.606H126.944L126.958 124.938ZM133.061 131.203H131.357V130.62L131.039 130.882C130.924 130.974 130.799 131.053 130.666 131.116C130.518 131.188 130.364 131.244 130.205 131.286C130.006 131.331 129.802 131.351 129.597 131.346C129.373 131.352 129.149 131.312 128.941 131.228C128.732 131.145 128.543 131.019 128.386 130.859C128.23 130.695 128.109 130.501 128.03 130.29C127.951 130.078 127.915 129.853 127.925 129.628C127.909 129.282 127.994 128.939 128.169 128.64C128.344 128.379 128.588 128.172 128.874 128.043C129.226 127.882 129.6 127.776 129.984 127.731C130.414 127.672 130.875 127.626 131.366 127.593V127.528C131.378 127.402 131.353 127.275 131.293 127.163C131.233 127.051 131.142 126.959 131.03 126.899C130.711 126.765 130.366 126.705 130.021 126.725C129.781 126.73 129.542 126.767 129.312 126.835C129.041 126.908 128.776 127.002 128.52 127.115H128.358V125.792C128.527 125.743 128.802 125.685 129.183 125.618C129.561 125.55 129.945 125.517 130.329 125.516C131.05 125.457 131.771 125.617 132.398 125.976C132.617 126.143 132.791 126.362 132.904 126.613C133.017 126.864 133.067 127.139 133.047 127.414L133.061 131.203ZM138.588 130.225C138.465 130.459 138.288 130.661 138.072 130.813C137.821 130.993 137.54 131.128 137.243 131.212C136.871 131.314 136.486 131.362 136.101 131.355C135.714 131.356 135.329 131.312 134.954 131.222C134.646 131.152 134.346 131.049 134.06 130.914V129.467H134.203L134.484 129.674C134.621 129.766 134.768 129.845 134.922 129.908C135.095 129.988 135.275 130.053 135.46 130.101C135.674 130.157 135.894 130.185 136.114 130.183C136.333 130.188 136.55 130.151 136.755 130.073C136.833 130.051 136.903 130.005 136.953 129.94C137.003 129.875 137.03 129.796 137.031 129.715C137.035 129.66 137.025 129.605 137.002 129.554C136.98 129.504 136.945 129.46 136.902 129.426C136.75 129.335 136.583 129.272 136.409 129.242L135.916 129.136C135.737 129.104 135.56 129.061 135.387 129.008C135.012 128.909 134.674 128.703 134.415 128.415C134.186 128.12 134.071 127.754 134.088 127.381C134.088 127.141 134.146 126.905 134.258 126.692C134.38 126.466 134.55 126.268 134.756 126.114C135 125.935 135.275 125.801 135.566 125.719C135.921 125.616 136.289 125.567 136.658 125.572C137.016 125.569 137.373 125.607 137.722 125.686C138.004 125.749 138.279 125.841 138.542 125.962V127.34H138.404C138.313 127.274 138.219 127.213 138.123 127.156C138.002 127.083 137.878 127.018 137.75 126.959C137.601 126.891 137.447 126.837 137.289 126.798C137.109 126.755 136.926 126.734 136.741 126.734C136.523 126.728 136.307 126.772 136.11 126.862C136.039 126.887 135.976 126.931 135.93 126.991C135.884 127.051 135.857 127.123 135.852 127.198C135.849 127.253 135.86 127.309 135.882 127.36C135.904 127.411 135.938 127.456 135.981 127.492C136.149 127.598 136.337 127.67 136.534 127.703C136.681 127.74 136.85 127.775 137.04 127.809C137.228 127.841 137.412 127.887 137.593 127.946C137.948 128.039 138.268 128.234 138.514 128.507C138.728 128.787 138.836 129.134 138.818 129.485C138.797 129.742 138.713 129.99 138.574 130.206L138.588 130.225ZM143.157 126.908H141.508V128.851C141.508 129.044 141.508 129.21 141.508 129.357C141.509 129.489 141.535 129.62 141.586 129.742C141.634 129.858 141.72 129.954 141.83 130.014C141.988 130.09 142.162 130.124 142.337 130.115C142.459 130.109 142.579 130.089 142.696 130.055C142.803 130.031 142.906 129.996 143.005 129.949H143.152V131.157C142.957 131.208 142.758 131.246 142.558 131.272C142.303 131.302 142.046 131.316 141.789 131.313C141.245 131.36 140.703 131.206 140.264 130.882C140.094 130.692 139.965 130.469 139.886 130.227C139.807 129.985 139.779 129.729 139.804 129.476V126.913H139.15V125.691H139.804V124.125H141.517V125.691H143.166L143.157 126.908ZM149.034 128.782H145.275C145.283 129.004 145.338 129.222 145.437 129.421C145.522 129.585 145.647 129.726 145.8 129.83C145.957 129.934 146.132 130.008 146.316 130.046C146.527 130.09 146.741 130.112 146.956 130.11C147.155 130.111 147.353 130.089 147.546 130.046C147.728 130.005 147.905 129.947 148.076 129.871C148.21 129.812 148.341 129.744 148.467 129.669C148.587 129.599 148.684 129.534 148.757 129.476H148.937V130.886L148.555 131.038C148.405 131.096 148.251 131.143 148.094 131.18C147.905 131.23 147.712 131.268 147.518 131.295C147.279 131.325 147.037 131.339 146.795 131.336C145.935 131.394 145.084 131.128 144.41 130.592C144.126 130.321 143.904 129.992 143.761 129.627C143.618 129.262 143.556 128.87 143.58 128.479C143.561 128.088 143.619 127.698 143.752 127.329C143.885 126.961 144.09 126.623 144.354 126.334C144.64 126.058 144.98 125.845 145.352 125.707C145.725 125.57 146.122 125.511 146.519 125.535C146.866 125.509 147.215 125.555 147.543 125.673C147.87 125.79 148.17 125.974 148.421 126.215C148.875 126.757 149.102 127.453 149.057 128.158L149.034 128.782ZM153.709 127.331H153.566C153.473 127.303 153.377 127.286 153.28 127.28C153.157 127.28 153.021 127.28 152.87 127.28C152.679 127.282 152.489 127.308 152.304 127.358C152.109 127.409 151.916 127.47 151.728 127.542V131.217H150.005V125.691H151.719V126.477C151.796 126.406 151.905 126.316 152.046 126.206C152.165 126.109 152.291 126.022 152.424 125.944C152.56 125.863 152.705 125.798 152.856 125.751C153.005 125.701 153.16 125.675 153.317 125.673H153.501H153.686L153.709 127.331Z" fill="#3A3A3C"/>
<path d="M59.4927 127.12C59.4057 126.995 59.2862 126.897 59.1473 126.835C59.0086 126.778 58.8596 126.75 58.7097 126.752C58.5685 126.75 58.428 126.773 58.2952 126.821C58.1572 126.878 58.0377 126.972 57.9498 127.092C57.838 127.25 57.7583 127.427 57.715 127.616C57.6504 127.889 57.6211 128.17 57.6275 128.452C57.6204 128.725 57.6481 128.998 57.7103 129.265C57.7526 129.442 57.826 129.609 57.9268 129.761C58.0122 129.884 58.1301 129.981 58.2675 130.041C58.4134 130.102 58.5702 130.131 58.7281 130.128C58.8722 130.127 59.0148 130.098 59.1473 130.041C59.2833 129.987 59.4016 129.897 59.4882 129.779C59.5953 129.626 59.6733 129.455 59.7185 129.274C59.7781 129.006 59.8044 128.731 59.7968 128.456C59.8017 128.183 59.7737 127.91 59.7138 127.643C59.6742 127.456 59.5992 127.278 59.4927 127.12Z" fill="#3A3A3C"/>
<path d="M130.104 128.81C129.966 128.854 129.845 128.937 129.754 129.049C129.665 129.171 129.622 129.32 129.629 129.471C129.618 129.569 129.63 129.669 129.667 129.761C129.703 129.853 129.761 129.935 129.837 129.999C130.022 130.107 130.235 130.156 130.449 130.142C130.608 130.14 130.765 130.106 130.91 130.041C131.069 129.971 131.214 129.873 131.338 129.751V128.608L130.633 128.686C130.453 128.707 130.275 128.748 130.104 128.81Z" fill="#3A3A3C"/>
<path d="M65.1669 126.83C64.9927 126.82 64.8183 126.85 64.6582 126.92C64.4981 126.989 64.3568 127.095 64.2458 127.23C64.0196 127.555 63.9095 127.946 63.9327 128.341C63.9297 128.543 63.9452 128.744 63.9788 128.943C64.0038 129.107 64.0634 129.264 64.1538 129.403C64.2331 129.524 64.3446 129.621 64.4761 129.683C64.6357 129.752 64.8088 129.785 64.9828 129.779C65.1396 129.779 65.2954 129.753 65.4433 129.701C65.5949 129.647 65.7377 129.572 65.867 129.476V126.991C65.7665 126.947 65.6616 126.915 65.554 126.895C65.4277 126.859 65.2979 126.838 65.1669 126.83Z" fill="#3A3A3C"/>
<path d="M17.9947 127.12C17.9076 126.995 17.7882 126.897 17.6493 126.835C17.5106 126.778 17.3618 126.75 17.2119 126.752C17.0706 126.75 16.93 126.773 16.7972 126.821C16.6592 126.878 16.5396 126.972 16.4517 127.092C16.3399 127.25 16.2602 127.427 16.2169 127.616C16.1524 127.889 16.123 128.17 16.1295 128.452C16.1223 128.725 16.15 128.998 16.2122 129.265C16.2545 129.442 16.3279 129.609 16.4288 129.761C16.5142 129.884 16.6323 129.981 16.7697 130.041C16.9155 130.102 17.0724 130.131 17.2303 130.128C17.3744 130.127 17.5167 130.098 17.6493 130.041C17.7853 129.987 17.9035 129.897 17.9902 129.779C18.0972 129.626 18.1753 129.455 18.2205 129.274C18.2801 129.006 18.3064 128.731 18.2988 128.456C18.3036 128.183 18.2757 127.91 18.2158 127.643C18.1762 127.456 18.1011 127.278 17.9947 127.12Z" fill="#3A3A3C"/>
<path d="M98.9504 126.61C98.8061 126.601 98.6619 126.624 98.5269 126.675C98.392 126.727 98.2695 126.806 98.1675 126.908C97.9701 127.134 97.8603 127.422 97.8588 127.721H99.9314C99.9429 127.425 99.8537 127.134 99.6781 126.894C99.5864 126.795 99.4732 126.718 99.3471 126.669C99.221 126.619 99.0854 126.599 98.9504 126.61Z" fill="#3A3A3C"/>
<path d="M8.9444 131.18H10.7683V128.057H13.5824V126.669H10.7683V125.296H13.8265V123.909H8.9444V131.18Z" fill="white"/>
<path d="M17.2164 125.526C16.8321 125.502 16.4472 125.559 16.0863 125.693C15.7254 125.827 15.3967 126.034 15.1208 126.302C14.6374 126.909 14.3742 127.662 14.3742 128.438C14.3742 129.213 14.6374 129.966 15.1208 130.574C15.7048 131.072 16.4479 131.346 17.2164 131.346C17.9848 131.346 18.7282 131.072 19.3121 130.574C19.7929 129.966 20.0543 129.214 20.0543 128.44C20.0543 127.666 19.7929 126.914 19.3121 126.306C19.0367 126.038 18.7078 125.83 18.3469 125.695C17.986 125.561 17.601 125.503 17.2164 125.526ZM18.2205 129.269C18.1753 129.45 18.0973 129.622 17.9902 129.775C17.9035 129.892 17.7853 129.983 17.6493 130.036C17.5168 130.093 17.3745 130.123 17.2303 130.124C17.0724 130.127 16.9156 130.097 16.7697 130.036C16.6323 129.976 16.5142 129.879 16.4288 129.756C16.3279 129.605 16.2545 129.437 16.2122 129.26C16.15 128.994 16.1223 128.72 16.1295 128.447C16.123 128.166 16.1524 127.885 16.217 127.611C16.2602 127.423 16.3399 127.245 16.4518 127.087C16.5397 126.967 16.6592 126.873 16.7972 126.816C16.93 126.768 17.0707 126.745 17.2119 126.747C17.3618 126.745 17.5106 126.773 17.6493 126.83C17.7882 126.892 17.9076 126.99 17.9947 127.115C18.1006 127.272 18.1756 127.449 18.2158 127.634C18.2757 127.901 18.3036 128.174 18.2988 128.447C18.3068 128.723 18.2805 128.999 18.2205 129.269Z" fill="white"/>
<path d="M24.3874 125.691C24.2308 125.693 24.0754 125.719 23.9269 125.769C23.7757 125.817 23.6304 125.881 23.494 125.962C23.3619 126.04 23.2357 126.127 23.1164 126.224C22.9782 126.334 22.8692 126.424 22.7894 126.495V125.691H21.0438V131.203H22.7572V127.528C22.9456 127.456 23.1378 127.395 23.3329 127.345C23.5176 127.294 23.708 127.268 23.8994 127.267C24.0499 127.267 24.1864 127.267 24.3092 127.267C24.406 127.272 24.5019 127.289 24.5948 127.317H24.7376V125.691H24.5534H24.3874Z" fill="white"/>
<path d="M28.1783 126.89H29.1684V130.679C29.1924 131.021 29.1306 131.364 28.9888 131.676C28.915 131.783 28.8133 131.868 28.6948 131.921C28.5763 131.975 28.4455 131.995 28.3163 131.979C28.2067 131.977 28.0974 131.966 27.9893 131.947C27.8645 131.928 27.7411 131.898 27.6207 131.86H27.4919V133.119C27.6757 133.159 27.8618 133.188 28.0492 133.206C28.3322 133.235 28.6167 133.248 28.9013 133.247C29.4287 133.27 29.9436 133.083 30.3336 132.728C30.5226 132.539 30.6695 132.313 30.7647 132.063C30.86 131.814 30.9015 131.548 30.8864 131.281V125.691H28.1827L28.1783 126.89Z" fill="white"/>
<path d="M30.8863 123.583H29.0578V124.915H30.8863V123.583Z" fill="white"/>
<path d="M36.3809 126.012C35.7542 125.654 35.0331 125.494 34.313 125.553C33.9285 125.553 33.5446 125.587 33.1661 125.654C32.7884 125.722 32.5136 125.78 32.3416 125.829V127.152H32.4891C32.7457 127.038 33.0104 126.945 33.2812 126.871C33.5118 126.804 33.7503 126.767 33.9905 126.761C34.3357 126.742 34.6807 126.801 34.9992 126.936C35.1112 126.996 35.2029 127.088 35.2627 127.2C35.3226 127.312 35.3478 127.439 35.3354 127.565V127.593C34.8379 127.626 34.3774 127.672 33.9536 127.73C33.5696 127.776 33.1952 127.882 32.8438 128.043C32.5575 128.172 32.3133 128.379 32.139 128.64C31.9634 128.939 31.8787 129.282 31.895 129.628C31.8849 129.853 31.9204 130.078 31.9996 130.29C32.0787 130.501 32.1998 130.695 32.3556 130.859C32.5129 131.019 32.7017 131.144 32.9101 131.228C33.1186 131.312 33.3422 131.352 33.5668 131.346C33.7712 131.351 33.9753 131.331 34.1747 131.286C34.3334 131.244 34.4877 131.187 34.6353 131.116C34.7683 131.052 34.8936 130.974 35.0084 130.882L35.3261 130.62V131.203H37.0304V127.473C37.0538 127.195 37.0067 126.915 36.8932 126.66C36.7797 126.405 36.6034 126.182 36.3809 126.012ZM35.3261 129.752C35.2022 129.873 35.0572 129.971 34.898 130.041C34.7531 130.106 34.5963 130.14 34.4374 130.142C34.2235 130.156 34.0102 130.107 33.8248 130C33.7493 129.935 33.6909 129.854 33.6548 129.761C33.6186 129.669 33.6058 129.57 33.6174 129.471C33.6096 129.321 33.6535 129.172 33.7418 129.049C33.8327 128.937 33.9544 128.854 34.0919 128.81C34.2632 128.749 34.4408 128.707 34.6216 128.686L35.3261 128.608V129.752Z" fill="white"/>
<path d="M43.7641 125.696H41.7421L40.1163 127.841V123.583H38.403V131.18H40.1163V129.15L40.3788 128.792L41.8665 131.18H43.9069L41.8389 128.061L43.7641 125.696Z" fill="white"/>
<path d="M46.3755 124.129H44.6621V125.691H44.0081V126.881H44.6621V129.444C44.6371 129.697 44.6651 129.953 44.7444 130.195C44.8237 130.437 44.9525 130.66 45.1227 130.849C45.561 131.174 46.1033 131.327 46.6472 131.281C46.9042 131.284 47.1611 131.27 47.4163 131.24C47.6166 131.214 47.8151 131.176 48.0105 131.125V129.917H47.8632C47.7646 129.963 47.6611 129.999 47.5547 130.023C47.4378 130.057 47.317 130.077 47.1953 130.082C47.0205 130.092 46.8464 130.057 46.6888 129.981C46.5785 129.922 46.4922 129.826 46.4446 129.71C46.3938 129.588 46.3673 129.457 46.3663 129.324C46.3663 129.182 46.3663 129.012 46.3663 128.819V126.876H48.0152V125.691H46.3755V124.129Z" fill="white"/>
<path d="M51.9439 127.294H48.6968V128.654H51.9439V127.294Z" fill="white"/>
<path d="M58.7144 125.526C58.3302 125.502 57.9452 125.559 57.5844 125.693C57.2235 125.827 56.8947 126.034 56.6189 126.302C56.1354 126.909 55.8723 127.662 55.8723 128.438C55.8723 129.213 56.1354 129.966 56.6189 130.574C57.2029 131.072 57.946 131.346 58.7144 131.346C59.4829 131.346 60.226 131.072 60.81 130.574C61.2907 129.966 61.5523 129.214 61.5523 128.44C61.5523 127.666 61.2907 126.914 60.81 126.306C60.5345 126.038 60.2059 125.83 59.845 125.695C59.4841 125.561 59.099 125.503 58.7144 125.526ZM59.7186 129.269C59.6733 129.45 59.5953 129.622 59.4883 129.775C59.4016 129.892 59.2834 129.983 59.1473 130.036C59.0148 130.093 58.8723 130.123 58.7281 130.124C58.5702 130.127 58.4134 130.097 58.2676 130.036C58.1301 129.976 58.0123 129.879 57.9269 129.756C57.826 129.605 57.7526 129.437 57.7103 129.26C57.6481 128.994 57.6204 128.72 57.6275 128.447C57.6211 128.166 57.6505 127.885 57.715 127.611C57.7583 127.423 57.838 127.245 57.9498 127.087C58.0377 126.967 58.1573 126.873 58.2952 126.816C58.4281 126.768 58.5685 126.745 58.7097 126.747C58.8597 126.745 59.0086 126.773 59.1473 126.83C59.2863 126.892 59.4057 126.99 59.4928 127.115C59.5987 127.272 59.6737 127.449 59.7138 127.634C59.7738 127.901 59.8017 128.174 59.7968 128.447C59.8093 128.723 59.7876 128.999 59.7323 129.269H59.7186Z" fill="white"/>
<path d="M65.8442 125.944C65.6557 125.82 65.4513 125.723 65.2363 125.654C64.9916 125.58 64.7367 125.544 64.4809 125.548C64.1716 125.548 63.8656 125.612 63.5827 125.737C63.3018 125.858 63.0517 126.04 62.8504 126.27C62.6293 126.526 62.4603 126.822 62.353 127.142C62.2284 127.516 62.1676 127.907 62.1733 128.3C62.1158 129.049 62.3211 129.794 62.7537 130.408C62.957 130.642 63.2114 130.826 63.4972 130.947C63.7831 131.067 64.0929 131.12 64.4026 131.102C64.671 131.103 64.9369 131.051 65.1855 130.95C65.4297 130.853 65.6556 130.715 65.8534 130.542V130.643C65.8573 130.839 65.8373 131.035 65.7936 131.226C65.7574 131.375 65.6863 131.514 65.5863 131.63C65.4604 131.758 65.3006 131.847 65.1257 131.887C64.7544 131.984 64.3671 132.003 63.9882 131.943C63.8531 131.921 63.7164 131.892 63.5782 131.855L63.228 131.75L62.9287 131.644H62.7261V133.022C63.0085 133.092 63.2944 133.147 63.5827 133.187C63.9275 133.235 64.2755 133.258 64.6237 133.256C65.0223 133.26 65.4197 133.216 65.8073 133.123C66.1441 133.038 66.4585 132.882 66.7285 132.664C66.9991 132.444 67.2071 132.157 67.3319 131.832C67.4896 131.419 67.5646 130.979 67.5529 130.537V125.691H65.8948L65.8442 125.944ZM65.8442 129.458C65.7149 129.553 65.5721 129.629 65.4205 129.683C65.2725 129.735 65.1168 129.761 64.9599 129.761C64.786 129.766 64.6129 129.733 64.4532 129.664C64.3218 129.602 64.2101 129.505 64.1308 129.384C64.0404 129.245 63.9808 129.088 63.9558 128.925C63.9222 128.726 63.9067 128.525 63.9097 128.323C63.8864 127.928 63.9968 127.537 64.223 127.211C64.3339 127.077 64.4753 126.971 64.6354 126.901C64.7955 126.832 64.9698 126.801 65.1441 126.812C65.2696 126.812 65.3946 126.826 65.5172 126.853C65.6249 126.874 65.73 126.906 65.8305 126.949L65.8442 129.458Z" fill="white"/>
<path d="M74.2819 123.532C73.7021 123.487 73.1275 123.668 72.6791 124.037C72.4909 124.239 72.3468 124.477 72.2556 124.737C72.1644 124.998 72.1282 125.274 72.1495 125.548V125.7H71.4633V126.89H72.1679V131.203H73.8814V126.908H75.1846V125.691H73.8029V125.645C73.7751 125.392 73.8425 125.139 73.9918 124.933C74.1955 124.782 74.4492 124.715 74.7011 124.745C74.8344 124.745 74.9672 124.761 75.0971 124.791L75.4057 124.869H75.5393V123.628C75.3548 123.596 75.1688 123.573 74.982 123.559C74.764 123.541 74.5306 123.532 74.2819 123.532Z" fill="white"/>
<path d="M77.6718 125.695H75.9584V131.18H77.6718V125.695Z" fill="white"/>
<path d="M77.7179 123.583H75.9078V124.915H77.7179V123.583Z" fill="white"/>
<path d="M82.2223 127.933C82.0417 127.873 81.8569 127.827 81.6695 127.795C81.4791 127.761 81.3102 127.726 81.1628 127.689C80.9664 127.656 80.7786 127.584 80.6103 127.478C80.5676 127.442 80.5337 127.397 80.5113 127.346C80.489 127.295 80.4786 127.239 80.4812 127.184C80.4862 127.109 80.5136 127.037 80.5594 126.977C80.6053 126.918 80.6678 126.873 80.7391 126.849C80.9367 126.758 81.1527 126.714 81.3702 126.72C81.5548 126.72 81.7387 126.741 81.9182 126.784C82.0764 126.824 82.2306 126.877 82.3788 126.945C82.5069 127.004 82.6314 127.07 82.7519 127.143C82.8487 127.199 82.9424 127.26 83.0328 127.326H83.1711V125.948C82.9086 125.827 82.6336 125.735 82.3512 125.673C82.0022 125.593 81.6451 125.555 81.2872 125.558C80.9181 125.553 80.5504 125.602 80.1958 125.705C79.9042 125.787 79.6296 125.921 79.3851 126.1C79.1788 126.254 79.009 126.452 78.8876 126.679C78.7756 126.891 78.7173 127.128 78.7174 127.368C78.7 127.74 78.8159 128.106 79.0444 128.401C79.3033 128.689 79.6411 128.895 80.0161 128.994C80.1898 129.047 80.3667 129.09 80.5457 129.122L81.0385 129.228C81.2127 129.258 81.3799 129.321 81.5314 129.412C81.5749 129.446 81.6093 129.49 81.6317 129.54C81.6542 129.591 81.664 129.646 81.6603 129.701C81.6593 129.783 81.6319 129.862 81.582 129.926C81.5322 129.991 81.4626 130.037 81.3839 130.059C81.1797 130.137 80.9624 130.175 80.7439 130.17C80.5232 130.171 80.3033 130.143 80.0899 130.087C79.9049 130.039 79.7243 129.974 79.5508 129.894C79.3973 129.831 79.2508 129.753 79.1134 129.66L78.8325 129.453H78.6897V130.9C78.9754 131.035 79.275 131.138 79.5832 131.208C79.9587 131.298 80.3437 131.343 80.7299 131.341C81.1155 131.348 81.5001 131.3 81.8721 131.199C82.1696 131.114 82.4502 130.979 82.7013 130.799C82.9178 130.647 83.0947 130.445 83.2172 130.211C83.336 129.984 83.3975 129.732 83.3967 129.476C83.4146 129.124 83.3071 128.778 83.0928 128.498C82.8617 128.231 82.5599 128.036 82.2223 127.933Z" fill="white"/>
<path d="M89.7113 125.696H87.6893L86.0589 127.841V123.583H84.3455V131.18H86.0589V129.15L86.326 128.792L87.8137 131.18H89.854L87.786 128.061L89.7113 125.696Z" fill="white"/>
<path d="M93.0274 125.526C92.6307 125.502 92.2333 125.561 91.8606 125.698C91.488 125.836 91.1481 126.049 90.8626 126.325C90.5979 126.614 90.3933 126.952 90.2605 127.32C90.1277 127.689 90.0695 128.079 90.0889 128.47C90.0649 128.861 90.1266 129.253 90.2698 129.618C90.4129 129.983 90.634 130.312 90.9179 130.583C91.5923 131.119 92.4433 131.384 93.3038 131.327C93.5455 131.33 93.787 131.316 94.0268 131.286C94.2208 131.259 94.413 131.221 94.6025 131.171C94.7591 131.134 94.913 131.087 95.0631 131.029L95.4454 130.877V129.467H95.2657C95.192 129.522 95.0953 129.586 94.9756 129.66C94.8494 129.735 94.7186 129.803 94.5841 129.862C94.4138 129.937 94.2364 129.996 94.0544 130.036C93.861 130.08 93.6633 130.102 93.465 130.101C93.2499 130.103 93.0351 130.081 92.8247 130.036C92.6404 129.998 92.4652 129.925 92.3088 129.821C92.1553 129.717 92.0302 129.576 91.945 129.412C91.8465 129.213 91.7915 128.995 91.7837 128.773H95.5421V128.158C95.5878 127.453 95.3603 126.757 94.9066 126.215C94.6586 125.976 94.3634 125.791 94.0398 125.672C93.7163 125.554 93.3714 125.504 93.0274 125.526ZM91.8022 127.735C91.8037 127.436 91.9132 127.147 92.1107 126.922C92.2127 126.82 92.3354 126.741 92.4703 126.689C92.6053 126.638 92.7495 126.615 92.8938 126.624C93.0288 126.613 93.1644 126.633 93.2905 126.682C93.4166 126.732 93.5298 126.809 93.6215 126.908C93.7971 127.148 93.8863 127.439 93.8748 127.735H91.8022Z" fill="white"/>
<path d="M99.0839 125.526C98.6872 125.502 98.29 125.561 97.9174 125.698C97.5447 125.836 97.2048 126.049 96.9193 126.325C96.6547 126.614 96.4499 126.952 96.317 127.32C96.1842 127.689 96.126 128.079 96.1455 128.47C96.1214 128.861 96.1831 129.253 96.3263 129.618C96.4694 129.983 96.6906 130.312 96.9744 130.583C97.6488 131.119 98.4998 131.384 99.3603 131.327C99.602 131.33 99.8435 131.316 100.083 131.286C100.277 131.259 100.47 131.221 100.659 131.171C100.816 131.134 100.97 131.087 101.12 131.029L101.502 130.877V129.467H101.322C101.249 129.522 101.152 129.586 101.032 129.66C100.906 129.735 100.775 129.803 100.641 129.862C100.47 129.937 100.293 129.996 100.111 130.036C99.9175 130.08 99.7198 130.102 99.5215 130.101C99.3064 130.103 99.0916 130.081 98.8813 130.036C98.697 129.998 98.5217 129.925 98.3654 129.821C98.2118 129.717 98.0868 129.576 98.0015 129.412C97.903 129.213 97.8482 128.995 97.8405 128.773H101.599V128.158C101.644 127.453 101.417 126.757 100.963 126.215C100.715 125.976 100.42 125.791 100.096 125.672C99.7728 125.554 99.4279 125.504 99.0839 125.526ZM97.8587 127.735C97.8602 127.436 97.97 127.147 98.1675 126.922C98.2694 126.82 98.3919 126.741 98.5268 126.689C98.6618 126.638 98.806 126.615 98.9503 126.624C99.0853 126.613 99.2209 126.633 99.347 126.682C99.4731 126.732 99.5863 126.809 99.678 126.908C99.8536 127.148 99.9428 127.439 99.9313 127.735H97.8587Z" fill="white"/>
<path d="M106.02 125.548C105.714 125.545 105.411 125.614 105.136 125.751C104.842 125.903 104.567 126.09 104.316 126.306V125.691H102.603V131.203H104.316V127.317C104.458 127.215 104.613 127.131 104.777 127.069C104.914 127.018 105.059 126.991 105.205 126.991C105.363 126.983 105.521 127.011 105.666 127.073C105.779 127.13 105.868 127.224 105.919 127.34C105.98 127.495 106.014 127.66 106.02 127.827C106.039 128.047 106.048 128.268 106.048 128.488V131.203H107.77V127.634C107.803 127.084 107.64 126.541 107.31 126.1C107.152 125.915 106.953 125.77 106.73 125.674C106.506 125.578 106.263 125.535 106.02 125.548Z" fill="white"/>
<path d="M110.939 124.129H109.226V125.691H108.553V126.881H109.207V129.444C109.182 129.697 109.211 129.953 109.29 130.195C109.369 130.437 109.498 130.66 109.668 130.849C110.106 131.174 110.649 131.327 111.193 131.281C111.45 131.284 111.707 131.27 111.962 131.24C112.162 131.214 112.36 131.176 112.556 131.125V129.917H112.409C112.31 129.963 112.207 129.999 112.1 130.023C111.983 130.057 111.862 130.077 111.741 130.082C111.566 130.092 111.392 130.057 111.234 129.981C111.124 129.922 111.038 129.826 110.99 129.71C110.939 129.588 110.913 129.457 110.912 129.324C110.912 129.182 110.912 129.012 110.912 128.819V126.876H112.561V125.691H110.912L110.939 124.129Z" fill="white"/>
<path d="M116.789 129.586C116.647 129.687 116.492 129.767 116.328 129.825C116.191 129.878 116.046 129.907 115.9 129.912C115.741 129.921 115.583 129.891 115.439 129.825C115.331 129.769 115.245 129.678 115.195 129.568C115.134 129.422 115.098 129.266 115.089 129.108C115.089 128.931 115.089 128.7 115.089 128.415V125.691H113.367V129.26C113.326 129.816 113.49 130.368 113.827 130.813C113.989 130.987 114.187 131.123 114.407 131.212C114.628 131.301 114.865 131.34 115.103 131.327C115.409 131.335 115.712 131.269 115.987 131.134C116.28 130.975 116.555 130.786 116.807 130.569V131.203H118.52V125.691H116.807L116.789 129.586Z" fill="white"/>
<path d="M123.052 127.933C122.872 127.873 122.687 127.827 122.5 127.795C122.309 127.761 122.141 127.726 121.993 127.689C121.797 127.656 121.609 127.584 121.44 127.478C121.398 127.442 121.364 127.397 121.342 127.346C121.319 127.295 121.309 127.239 121.312 127.184C121.317 127.109 121.344 127.037 121.39 126.977C121.436 126.918 121.498 126.873 121.569 126.849C121.767 126.758 121.983 126.714 122.2 126.72C122.385 126.72 122.569 126.741 122.748 126.784C122.907 126.824 123.061 126.877 123.209 126.945C123.337 127.004 123.462 127.07 123.582 127.143C123.679 127.199 123.773 127.26 123.863 127.326H124.001V125.948C123.739 125.827 123.464 125.735 123.181 125.673C122.832 125.593 122.476 125.555 122.118 125.558C121.748 125.553 121.381 125.602 121.026 125.705C120.734 125.787 120.46 125.921 120.215 126.1C120.009 126.254 119.839 126.452 119.718 126.679C119.606 126.891 119.547 127.128 119.548 127.368C119.53 127.74 119.646 128.106 119.875 128.401C120.133 128.689 120.471 128.895 120.846 128.994C121.02 129.047 121.197 129.09 121.376 129.122L121.869 129.228C122.043 129.258 122.21 129.321 122.362 129.412C122.405 129.446 122.439 129.49 122.462 129.54C122.484 129.591 122.494 129.646 122.49 129.701C122.489 129.783 122.462 129.862 122.412 129.926C122.362 129.991 122.293 130.037 122.214 130.059C122.01 130.137 121.793 130.175 121.574 130.17C121.353 130.171 121.133 130.143 120.92 130.087C120.735 130.039 120.555 129.974 120.381 129.894C120.228 129.831 120.081 129.753 119.944 129.66L119.663 129.453H119.52V130.9C119.806 131.035 120.105 131.138 120.413 131.208C120.789 131.298 121.174 131.343 121.56 131.341C121.946 131.348 122.331 131.3 122.703 131.199C123 131.114 123.28 130.979 123.531 130.799C123.748 130.647 123.925 130.445 124.047 130.211C124.166 129.984 124.228 129.732 124.227 129.476C124.245 129.124 124.137 128.778 123.923 128.498C123.692 128.231 123.39 128.036 123.052 127.933Z" fill="white"/>
<path d="M126.889 125.695H125.176V131.18H126.889V125.695Z" fill="white"/>
<path d="M126.94 123.583H125.13V124.915H126.94V123.583Z" fill="white"/>
<path d="M132.393 126.012C131.766 125.654 131.045 125.494 130.325 125.553C129.94 125.553 129.557 125.587 129.178 125.654C128.8 125.722 128.526 125.78 128.354 125.829V127.152H128.501C128.758 127.038 129.022 126.945 129.293 126.871C129.524 126.804 129.762 126.767 130.002 126.761C130.348 126.742 130.693 126.801 131.011 126.936C131.123 126.996 131.215 127.088 131.275 127.2C131.335 127.312 131.36 127.439 131.348 127.565V127.593C130.85 127.626 130.39 127.672 129.966 127.73C129.582 127.776 129.207 127.882 128.856 128.043C128.569 128.172 128.325 128.379 128.151 128.64C127.975 128.939 127.891 129.282 127.907 129.628C127.897 129.853 127.933 130.078 128.012 130.29C128.091 130.501 128.212 130.695 128.367 130.859C128.525 131.019 128.714 131.144 128.922 131.228C129.131 131.312 129.354 131.352 129.579 131.346C129.783 131.351 129.987 131.331 130.187 131.286C130.346 131.244 130.5 131.187 130.647 131.116C130.781 131.052 130.906 130.974 131.02 130.882L131.338 130.62V131.203H133.042V127.473C133.066 127.195 133.019 126.915 132.905 126.66C132.792 126.405 132.615 126.182 132.393 126.012ZM131.338 129.752C131.214 129.873 131.069 129.971 130.91 130.041C130.765 130.106 130.608 130.14 130.449 130.142C130.235 130.156 130.022 130.107 129.837 130C129.761 129.935 129.703 129.854 129.667 129.761C129.631 129.669 129.618 129.57 129.629 129.471C129.622 129.321 129.665 129.172 129.754 129.049C129.845 128.937 129.966 128.854 130.104 128.81C130.275 128.749 130.453 128.707 130.634 128.686L131.338 128.608V129.752Z" fill="white"/>
<path d="M137.57 127.933C137.389 127.873 137.204 127.827 137.017 127.795C136.827 127.761 136.658 127.726 136.511 127.689C136.314 127.656 136.126 127.584 135.958 127.478C135.915 127.442 135.881 127.397 135.859 127.346C135.837 127.295 135.826 127.239 135.829 127.184C135.834 127.109 135.861 127.037 135.907 126.977C135.953 126.918 136.015 126.873 136.087 126.849C136.284 126.758 136.5 126.714 136.718 126.72C136.902 126.72 137.086 126.741 137.266 126.784C137.424 126.824 137.578 126.877 137.726 126.945C137.854 127.004 137.979 127.07 138.1 127.143C138.196 127.199 138.29 127.26 138.38 127.326H138.519V125.948C138.256 125.827 137.981 125.735 137.699 125.673C137.35 125.593 136.993 125.555 136.635 125.558C136.266 125.553 135.898 125.602 135.543 125.705C135.252 125.787 134.977 125.921 134.733 126.1C134.526 126.254 134.357 126.452 134.235 126.679C134.123 126.891 134.065 127.128 134.065 127.368C134.048 127.74 134.163 128.106 134.392 128.401C134.651 128.689 134.989 128.895 135.364 128.994C135.537 129.047 135.714 129.09 135.893 129.122L136.386 129.228C136.56 129.258 136.727 129.321 136.879 129.412C136.922 129.446 136.957 129.49 136.979 129.54C137.002 129.591 137.012 129.646 137.008 129.701C137.007 129.783 136.979 129.862 136.93 129.926C136.88 129.991 136.81 130.037 136.732 130.059C136.528 130.137 136.31 130.175 136.091 130.17C135.871 130.171 135.651 130.143 135.437 130.087C135.252 130.039 135.072 129.974 134.899 129.894C134.745 129.831 134.598 129.753 134.461 129.66L134.18 129.453H134.037V130.9C134.323 131.035 134.623 131.138 134.931 131.208C135.306 131.298 135.691 131.343 136.078 131.341C136.463 131.348 136.848 131.3 137.22 131.199C137.517 131.114 137.798 130.979 138.049 130.799C138.265 130.647 138.442 130.445 138.565 130.211C138.684 129.984 138.745 129.732 138.744 129.476C138.762 129.124 138.655 128.778 138.44 128.498C138.209 128.231 137.908 128.036 137.57 127.933Z" fill="white"/>
<path d="M141.489 124.129H139.776V125.691H139.122V126.881H139.776V129.444C139.751 129.697 139.779 129.953 139.858 130.195C139.938 130.437 140.066 130.66 140.237 130.849C140.675 131.174 141.217 131.327 141.761 131.281C142.018 131.284 142.275 131.27 142.53 131.24C142.731 131.214 142.929 131.176 143.124 131.125V129.917H142.977C142.879 129.963 142.775 129.999 142.668 130.023C142.552 130.057 142.431 130.077 142.309 130.082C142.134 130.092 141.96 130.057 141.803 129.981C141.692 129.922 141.606 129.826 141.559 129.71C141.508 129.588 141.481 129.457 141.48 129.324C141.48 129.182 141.48 129.012 141.48 128.819V126.876H143.129V125.691H141.48L141.489 124.129Z" fill="white"/>
<path d="M146.477 125.526C146.081 125.502 145.683 125.561 145.311 125.698C144.938 125.836 144.598 126.049 144.313 126.325C144.048 126.614 143.843 126.952 143.711 127.32C143.578 127.689 143.519 128.079 143.539 128.47C143.515 128.861 143.576 129.253 143.72 129.618C143.863 129.983 144.084 130.312 144.368 130.583C145.042 131.119 145.893 131.384 146.754 131.327C146.995 131.33 147.237 131.316 147.477 131.286C147.671 131.259 147.863 131.221 148.052 131.171C148.209 131.134 148.363 131.087 148.513 131.029L148.895 130.877V129.467H148.716C148.642 129.522 148.545 129.586 148.426 129.66C148.299 129.735 148.169 129.803 148.034 129.862C147.864 129.937 147.686 129.996 147.504 130.036C147.311 130.08 147.113 130.102 146.915 130.101C146.7 130.103 146.485 130.081 146.275 130.036C146.09 129.998 145.915 129.925 145.759 129.821C145.605 129.717 145.48 129.576 145.395 129.412C145.297 129.213 145.242 128.995 145.234 128.773H148.992V128.158C149.038 127.453 148.81 126.757 148.356 126.215C148.109 125.976 147.813 125.791 147.49 125.672C147.166 125.554 146.821 125.504 146.477 125.526ZM145.252 127.735C145.254 127.436 145.363 127.147 145.561 126.922C145.663 126.82 145.785 126.741 145.92 126.689C146.055 126.638 146.199 126.615 146.344 126.624C146.479 126.613 146.615 126.633 146.741 126.682C146.867 126.732 146.98 126.809 147.071 126.908C147.247 127.148 147.336 127.439 147.325 127.735H145.252Z" fill="white"/>
<path d="M153.317 125.691C153.16 125.693 153.005 125.719 152.856 125.769C152.705 125.817 152.56 125.881 152.424 125.962C152.291 126.04 152.165 126.127 152.046 126.224C151.908 126.334 151.799 126.424 151.719 126.495V125.691H150.005V131.203H151.719V127.528C151.907 127.456 152.099 127.395 152.295 127.345C152.479 127.294 152.67 127.268 152.861 127.267C153.012 127.267 153.148 127.267 153.271 127.267C153.368 127.272 153.464 127.289 153.557 127.317H153.699V125.691H153.515H153.317Z" fill="white"/>
</g>
<defs>
<clipPath id="clip0">
<rect width="160" height="137" fill="white"/>
</clipPath>
</defs>
</svg>
